<svg xmlns="http://www.w3.org/2000/svg" viewBox="0 0 100 100" fill="none" width="36" height="36">
  <!-- GlbTOKEN Logo – Minimalist Geometric Tech Mark -->
  
  <!-- Shield/hexagon outer frame -->
  <path d="M50 4 L86 24 L86 64 L50 96 L14 64 L14 24 Z" 
        stroke="currentColor" stroke-width="2.5" fill="none" stroke-linejoin="round"/>
  
  <!-- Inner circle (globe) -->
  <circle cx="50" cy="48" r="18" stroke="currentColor" stroke-width="2" fill="none"/>
  
  <!-- Globe horizontal line -->
  <line x1="32" y1="48" x2="68" y2="48" stroke="currentColor" stroke-width="1.5"/>
  
  <!-- Globe vertical line (meridian) -->
  <path d="M50 30 Q42 40 42 48 Q42 56 50 66" stroke="currentColor" stroke-width="1.5" fill="none"/>
  <path d="M50 30 Q58 40 58 48 Q58 56 50 66" stroke="currentColor" stroke-width="1.5" fill="none"/>
  
  <!-- Left circuit trace -->
  <polyline points="26,36 20,36 20,28 14,28" stroke="currentColor" stroke-width="2" fill="none" stroke-linecap="round" stroke-linejoin="round"/>
  <circle cx="13" cy="28" r="2" stroke="currentColor" stroke-width="2" fill="none"/>
  
  <!-- Right circuit trace -->
  <polyline points="74,36 80,36 80,22 86,22" stroke="currentColor" stroke-width="2" fill="none" stroke-linecap="round" stroke-linejoin="round"/>
  <circle cx="87" cy="22" r="2" stroke="currentColor" stroke-width="2" fill="none"/>
  
  <!-- Bottom-left circuit -->
  <polyline points="26,60 20,60 20,72 14,72" stroke="currentColor" stroke-width="2" fill="none" stroke-linecap="round" stroke-linejoin="round"/>
  <circle cx="13" cy="72" r="2" stroke="currentColor" stroke-width="2" fill="none"/>
  
  <!-- Bottom-right circuit -->
  <polyline points="74,60 80,60 80,68 86,68" stroke="currentColor" stroke-width="2" fill="none" stroke-linecap="round" stroke-linejoin="round"/>
  <circle cx="87" cy="68" r="2" stroke="currentColor" stroke-width="2" fill="none"/>
</svg>
